<svg xmlns="http://www.w3.org/2000/svg" viewBox="0 0 21.75 17.85"><defs><style>.cls-1{fill:#0070ba;}</style></defs><title>Ресурс 1</title><g id="Слой_2" data-name="Слой 2"><g id="Layer_3" data-name="Layer 3"><path class="cls-1" d="M19.65,17.85H2.11A2.11,2.11,0,0,1,0,15.75V2.11A2.11,2.11,0,0,1,2.11,0H19.65a2.11,2.11,0,0,1,2.11,2.11V15.75a2.11,2.11,0,0,1-2.11,2.11ZM2.11,2A.1.1,0,0,0,2,2.11V15.75a.11.11,0,0,0,.11.11H19.65a.11.11,0,0,0,.11-.11V2.11A.11.11,0,0,0,19.65,2Z"/><path class="cls-1" d="M16.72,7.38H12.36a.5.5,0,1,1,0-1h4.35a.5.5,0,1,1,0,1Z"/><path class="cls-1" d="M16.6,10H10.24a.5.5,0,1,1,0-1H16.6a.5.5,0,1,1,0,1Z"/><path class="cls-1" d="M6.49,12.81H4.91a.5.5,0,1,1,0-1H6.49a.5.5,0,1,1,0,1Z"/><path class="cls-1" d="M16.72,12.81H8.36a.5.5,0,1,1,0-1h8.35a.5.5,0,1,1,0,1Z"/><path class="cls-1" d="M9.67,7.38H4.31a.5.5,0,1,1,0-1H9.67a.5.5,0,0,1,0,1Z"/><path class="cls-1" d="M6.49,9.55V4.2a.5.5,0,1,1,1,0V9.55a.5.5,0,0,1-1,0Z"/></g></g></svg>