<svg xmlns="http://www.w3.org/2000/svg" viewBox="0 0 75.15 58.92"><defs><style>.cls-1{fill:#0070ba;}</style></defs><title>Ресурс 1</title><g id="Слой_2" data-name="Слой 2"><g id="_06_shopping" data-name="06 shopping"><path id="_20" data-name="20" class="cls-1" d="M75.15,28.15,61.58,12.52H51.8V0H0V49.41H10.57a10,10,0,0,0,19.94,0H44.08a10,10,0,0,0,19.94,0H75.15ZM4.8,4.8H47V44.61H4.8ZM20.54,54.12a5.18,5.18,0,0,1-5.15-4.71H25.69A5.18,5.18,0,0,1,20.54,54.12Zm33.5,0a5.18,5.18,0,0,1-5.14-4.71H59.19A5.18,5.18,0,0,1,54,54.12Zm16.3-9.51H51.8V17.32h7.59l11,12.62Z"/></g></g></svg>