<svg xmlns="http://www.w3.org/2000/svg" viewBox="0 0 25 28"><defs><style>.cls-1{fill:#0070ba;}</style></defs><title>Ресурс 1</title><g id="Слой_2" data-name="Слой 2"><g id="Layer_1" data-name="Layer 1"><path class="cls-1" d="M20,22h2v4a2,2,0,0,1-2,2H2a2,2,0,0,1-2-2V6.83A2,2,0,0,1,.59,5.41L5.41.59A2,2,0,0,1,6.83,0H20a2,2,0,0,1,2,2v9H20V2.5a.5.5,0,0,0-.5-.5H7V5A2,2,0,0,1,5,7H2V25.5a.5.5,0,0,0,.5.5h17a.5.5,0,0,0,.5-.5Zm5-8v5a2,2,0,0,1-2,2H7a2,2,0,0,1-2-2V14a2,2,0,0,1,2-2H23A2,2,0,0,1,25,14ZM12.08,18.93a.14.14,0,0,0,0-.14L10.66,16.5l1.41-2.29a.13.13,0,0,0,0-.14A.14.14,0,0,0,12,14H11a.23.23,0,0,0-.2.11L10,15.49l-.81-1.38A.24.24,0,0,0,9,14H8a.14.14,0,0,0-.12.07.13.13,0,0,0,0,.14L9.34,16.5,7.92,18.79a.13.13,0,0,0,0,.14A.14.14,0,0,0,8,19H9a.24.24,0,0,0,.2-.11L10,17.52l.81,1.37A.23.23,0,0,0,11,19h1A.14.14,0,0,0,12.08,18.93ZM17,18.14a.14.14,0,0,0-.14-.14H14V14.14a.14.14,0,0,0-.14-.14h-.72a.14.14,0,0,0-.14.14v4.72a.14.14,0,0,0,.14.14h3.72a.14.14,0,0,0,.14-.14Zm5-.67a1.28,1.28,0,0,0-.16-.66,1.25,1.25,0,0,0-.43-.43,2.16,2.16,0,0,0-.59-.25c-.21-.06-.43-.11-.66-.15l-.4-.08a1.45,1.45,0,0,1-.31-.11.52.52,0,0,1-.19-.15.37.37,0,0,1-.07-.23.39.39,0,0,1,.2-.36,1.36,1.36,0,0,1,.67-.13,4.26,4.26,0,0,1,.7.06,5.2,5.2,0,0,1,.78.2.14.14,0,0,0,.19-.13v-.69a.14.14,0,0,0-.1-.13c-.17-.05-.54-.16-.76-.2A5.38,5.38,0,0,0,20,14a3.15,3.15,0,0,0-.81.09,2,2,0,0,0-.65.29,1.41,1.41,0,0,0-.6,1.19,1.22,1.22,0,0,0,.14.61,1.21,1.21,0,0,0,.38.41,1.87,1.87,0,0,0,.54.25c.19.06.4.1.61.15l.45.08a2,2,0,0,1,.36.11.64.64,0,0,1,.22.14.31.31,0,0,1,.07.22.43.43,0,0,1-.09.28.62.62,0,0,1-.24.18,1.39,1.39,0,0,1-.36.1,2.92,2.92,0,0,1-.44,0,4,4,0,0,1-1.5-.28.14.14,0,0,0-.13,0,.14.14,0,0,0-.06.12v.77a.14.14,0,0,0,.11.14,7.28,7.28,0,0,0,1.6.21,4.69,4.69,0,0,0,1-.09,2.43,2.43,0,0,0,.77-.29,1.43,1.43,0,0,0,.5-.5A1.41,1.41,0,0,0,22,17.46Z"/></g></g></svg>