<svg xmlns="http://www.w3.org/2000/svg" viewBox="0 0 22 28"><defs><style>.cls-1{fill:#0070ba;}</style></defs><title>Ресурс 1</title><g id="Слой_2" data-name="Слой 2"><g id="Layer_1" data-name="Layer 1"><path class="cls-1" d="M22,10.19V2a2,2,0,0,0-2-2H6.83A2,2,0,0,0,5.41.59L.59,5.41A2,2,0,0,0,0,6.83V26a2,2,0,0,0,2,2H20a2,2,0,0,0,2-2V22H20v3.5a.5.5,0,0,1-.5.5H2.5a.5.5,0,0,1-.5-.5V7H5A2,2,0,0,0,7,5V2H19.5a.5.5,0,0,1,.5.5v7.67"/><path class="cls-1" d="M20,10.17l2,0"/><rect class="cls-1" x="20" y="10.17" width="2" height="12.34"/></g></g></svg>