<svg xmlns="http://www.w3.org/2000/svg" viewBox="0 0 25 28"><defs><style>.cls-1{fill:#0070ba;}</style></defs><title>Ресурс 1</title><g id="Слой_2" data-name="Слой 2"><g id="Layer_1" data-name="Layer 1"><path class="cls-1" d="M11,15.5a.5.5,0,0,1-.5.5H9V15h1.5A.5.5,0,0,1,11,15.5Zm9,10a.5.5,0,0,1-.5.5H2.5a.5.5,0,0,1-.5-.5V7H5A2,2,0,0,0,7,5V2H19.5a.5.5,0,0,1,.5.5V11h2V2a2,2,0,0,0-2-2H6.83A2,2,0,0,0,5.41.59L.59,5.41A2,2,0,0,0,0,6.83V26a2,2,0,0,0,2,2H20a2,2,0,0,0,2-2V22H20ZM15,15H14v3h1a1,1,0,0,0,1-1V16A1,1,0,0,0,15,15Zm10-1v5a2,2,0,0,1-2,2H7a2,2,0,0,1-2-2V14a2,2,0,0,1,2-2H23A2,2,0,0,1,25,14ZM12.1,15.5A1.5,1.5,0,0,0,10.6,14H8.16a.16.16,0,0,0-.16.16v4.67a.16.16,0,0,0,.16.16h.67A.16.16,0,0,0,9,18.84V17h1.6A1.5,1.5,0,0,0,12.1,15.5ZM17,16a2,2,0,0,0-2-2H13.14a.14.14,0,0,0-.14.14v4.72a.14.14,0,0,0,.14.14H15a2,2,0,0,0,2-2Zm5-1.84a.16.16,0,0,0-.16-.16H18.16a.16.16,0,0,0-.16.16v4.67a.16.16,0,0,0,.16.16h.7a.14.14,0,0,0,.14-.14V17h1.84a.16.16,0,0,0,.16-.16v-.67a.16.16,0,0,0-.16-.16H19V15h2.84a.16.16,0,0,0,.16-.16Z"/></g></g></svg>