<svg xmlns="http://www.w3.org/2000/svg" viewBox="0 0 26 28"><defs><style>.cls-1{fill:#0070ba;}</style></defs><title>Ресурс 1</title><g id="Слой_2" data-name="Слой 2"><g id="Layer_1" data-name="Layer 1"><path class="cls-1" d="M20,22h2v4a2,2,0,0,1-2,2H2a2,2,0,0,1-2-2V6.83A2,2,0,0,1,.59,5.41L5.41.59A2,2,0,0,1,6.83,0H20a2,2,0,0,1,2,2v9H20V2.5a.5.5,0,0,0-.5-.5H7V5A2,2,0,0,1,5,7H2V25.5a.5.5,0,0,0,.5.5h17a.5.5,0,0,0,.5-.5ZM10,15H9v3h1a1,1,0,0,0,1-1V16A1,1,0,0,0,10,15Zm5.5,3A1.5,1.5,0,1,1,17,16.5,1.5,1.5,0,0,1,15.5,18ZM24,12H7a2,2,0,0,0-2,2v5a2,2,0,0,0,2,2H24a2,2,0,0,0,2-2V14A2,2,0,0,0,24,12ZM12.1,17a2,2,0,0,1-2,2h-2A.14.14,0,0,1,8,18.86V14.14A.14.14,0,0,1,8.14,14h2a2,2,0,0,1,2,2Zm3.4,2A2.55,2.55,0,1,1,18,16.5,2.55,2.55,0,0,1,15.5,19Zm5.58-1a.89.89,0,0,0,.87-.44.15.15,0,0,1,.13-.07h.86a.15.15,0,0,1,.12.06.13.13,0,0,1,0,.13,1.93,1.93,0,0,1-2,1.35c-1.59,0-2.18-1.14-2.18-2.55S19.45,14,21.08,14a1.91,1.91,0,0,1,2,1.35.13.13,0,0,1,0,.13.15.15,0,0,1-.12.06H22.1a.15.15,0,0,1-.13-.08.88.88,0,0,0-.88-.44C20.67,15,20,15,20,16.5S20.73,18,21.08,18Z"/></g></g></svg>