<?xml version="1.0" encoding="utf-8"?>
<!-- Generator: Adobe Illustrator 22.0.1, SVG Export Plug-In . SVG Version: 6.00 Build 0)  -->
<svg version="1.1" id="Режим_изоляции"
	 xmlns="http://www.w3.org/2000/svg" xmlns:xlink="http://www.w3.org/1999/xlink" x="0px" y="0px" viewBox="0 0 137.6 18.4"
	 style="enable-background:new 0 0 137.6 18.4;" xml:space="preserve">
<style type="text/css">
	.st0{fill:#FFCF40;}
	.st1{fill:#888888;}
</style>
<g>
	<path class="st1" d="M13,0v4.3H4.8v3.1h7.5v4.3H4.8V18H0V0H13z"/>
	<path class="st1" d="M29.4,18V0H37c3.7,0,7.4,1.3,7.4,6.1c0,3-1.5,4.6-3.5,5.4l5,6.5h-5.4l-4.3-5.9h-2.1V18H29.4z M34.1,8.3h3
		c1.4,0,2.3-0.7,2.3-2.1c0-1.4-0.9-2.1-2.3-2.1h-3V8.3z"/>
	<path class="st1" d="M75.5,0v11.2c0,5.4-4.1,7.3-8.1,7.3c-4,0-8.1-1.8-8.1-7.3V0h4.8v10.9c0,2.4,1.3,3.3,3.4,3.3
		c2,0,3.4-0.9,3.4-3.3V0H75.5z"/>
	<path class="st1" d="M101.4,18v-7h-2.2l-4.4,7h-5.3l5.9-9.3L89.8,0h5.3l4.1,6.8h2.3V0h4.8v18H101.4z"/>
	<path class="st1" d="M137.6,0v4.3h-5.1V18h-4.8V4.3h-5.1V0H137.6z"/>
</g>
</svg>
