<svg xmlns="http://www.w3.org/2000/svg" viewBox="0 0 18.74 17.85"><defs><style>.cls-1{fill:#a7a7a7;}.cls-2{fill:none;stroke:#a7a7a7;stroke-linecap:round;stroke-miterlimit:10;stroke-width:0.99px;}</style></defs><title>Ресурс 1</title><g id="Слой_2" data-name="Слой 2"><g id="Layer_3" data-name="Layer 3"><path class="cls-1" d="M11.75,12v3.78a.11.11,0,0,1-.11.11H2.11A.11.11,0,0,1,2,15.75V2.11A.1.1,0,0,1,2.11,2h9.54a.11.11,0,0,1,.11.11V5.89h2V2.11A2.11,2.11,0,0,0,11.65,0H2.11A2.11,2.11,0,0,0,0,2.11V15.75a2.11,2.11,0,0,0,2.11,2.11h9.54a2.11,2.11,0,0,0,2.11-2.11V12Z"/><line class="cls-2" x1="17.98" y1="9.08" x2="8.73" y2="9.08"/><line class="cls-2" x1="15.21" y1="12.25" x2="18.24" y2="9.21"/><line class="cls-2" x1="15.21" y1="5.95" x2="18.24" y2="8.99"/></g></g></svg>