<svg xmlns="http://www.w3.org/2000/svg" viewBox="0 0 684.56 136.77"><defs><style>.cls-1,.cls-2{fill:#fff;}.cls-1,.cls-3,.cls-4,.cls-5,.cls-7{fill-rule:evenodd;}.cls-3{fill:#aa1012;}.cls-4{fill:#f2d06a;}.cls-5,.cls-6{fill:#e6b83a;}</style></defs><title>Ресурс 1</title><g id="Слой_2" data-name="Слой 2"><g id="Слой_1-2" data-name="Слой 1"><path class="cls-1" d="M144.85,81.47c.1-2.5.16-5.3.16-8.45a191.8,191.8,0,0,0-1.9-28.39s0-.27,0-.39l0-.15c0-.2-.05-.4-.08-.55-.91-5.78-5.19-10.52-12.74-14.08-1.15-.54-2.41-1.08-3.74-1.58-1-.36-2-.72-3-1.06-2-.66-4.24-1.29-6.57-1.85l-1.17-.28c-1.55-.36-3.18-.71-4.86-1l-1.27-.24c-3.38-.62-7-1.15-10.76-1.59l-1.42-.16c-2.37-.26-4.84-.48-7.34-.66-3-.22-6.28-.39-9.63-.49l-2.78-.07-.85,0q-2,0-4,0H69.89L67,20.46l-3,.09-2.9.13-2.94.16-2.89.2-1.44.11L51,21.41l-2.82.29-1.41.16L45.35,22,44,22.2l-1.41.19-1.35.19-1.32.2L38.57,23l-1.34.23-1.29.23-1.31.25-1.25.25-1.26.26-1.26.27-1.23.28-1.18.29-1.18.3-1.15.31L24.93,26l-1.12.33-1.12.35-1.1.36-1,.36-1.06.39-1,.4-1,.42-.94.41-1,.45-.91.44-.91.47-.4.21-.58.32-.84.5-.41.26-.46.29-.33.22-.53.37-.33.24-.47.35L9,33.38l-.53.44-.3.26-.41.37-.3.28-.43.42-.41.44L6.26,36,6,36.35l-.37.46-.28.37-.4.57-.22.34c-.12.19-.23.37-.34.56l-.26.48-.26.51-.22.47c-.08.19-.17.39-.27.65l-.18.5c-.06.19-.13.39-.18.58s-.11.4-.14.55-.1.4-.14.64-.06.35-.1.6-.06.41-.08.6v.14A152.78,152.78,0,0,0,0,73.11c0,15.11,2,23,2.82,25.55a16.48,16.48,0,0,0,3.55,6.78c5.54,7.19,17.8,10.26,22.6,11.46C42.08,120.19,59.39,122,77.71,122c18.58,0,38.16-1.83,53.72-5,21.47-4.4,31-10.41,31-19.49C162.47,90.59,156.93,85.46,144.85,81.47Z"/><path class="cls-2" d="M500.92,99.26a.51.51,0,0,0-1,0l-1.11,2.79a.51.51,0,0,0,.48.7h2.22a.51.51,0,0,0,.48-.7Z"/><path class="cls-2" d="M422.65,97h-2.42a1.08,1.08,0,0,0-1.08,1.08v2.34a1.09,1.09,0,0,0,1.08,1.08h2.63a1.83,1.83,0,0,0,1.45-.63h0a2.42,2.42,0,0,0,.58-1.6,2.61,2.61,0,0,0-.54-1.56A2.25,2.25,0,0,0,422.65,97Z"/><path class="cls-2" d="M475.74,102.52h-3.37a1.08,1.08,0,0,0-1.08,1.08v.69a1.08,1.08,0,0,0,1.08,1.08h3.29a1.52,1.52,0,0,0,1.14-.44,1.35,1.35,0,0,0,.38-1,1.52,1.52,0,0,0-.33-1A1.42,1.42,0,0,0,475.74,102.52Z"/><path class="cls-2" d="M472.37,99.18h3.06a.93.93,0,0,0,.74-.32,1.26,1.26,0,0,0,.23-.76,1.19,1.19,0,0,0-1.23-1.26h-2.8c-.9,0-1.08.57-1.08,1.17v.09A1,1,0,0,0,472.37,99.18Z"/><path class="cls-2" d="M528.24,97h-2.42a1.08,1.08,0,0,0-1.08,1.08v2.34a1.08,1.08,0,0,0,1.08,1.08h2.63a1.83,1.83,0,0,0,1.45-.63h0a2.42,2.42,0,0,0,.58-1.6,2.61,2.61,0,0,0-.54-1.56A2.25,2.25,0,0,0,528.24,97Z"/><path class="cls-2" d="M581.08,97.07h-2.54a2.17,2.17,0,0,0-1.69.67,2.46,2.46,0,0,0-.52,1.57,2.42,2.42,0,0,0,.53,1.55,2.25,2.25,0,0,0,1.71.72h2.51a1.09,1.09,0,0,0,1.08-1.08V98.15A1.08,1.08,0,0,0,581.08,97.07Z"/><path class="cls-2" d="M683.42,72.17C669,94.79,450.92,86.92,401,86.74c-13.75,0-68.49-.15-86,.66a1.9,1.9,0,0,0-1.71,1.28c-2.74,7.94-5.2,16.15-8,24.75a1.43,1.43,0,0,0,1.38,1.89c34.69-.58,263.12-.39,284.4-.16S679.79,111,684.55,72.7C684.63,72.07,683.76,71.63,683.42,72.17ZM361.89,104.3h0a4,4,0,0,0,3.08,1.25,6.94,6.94,0,0,0,3.42-1.36,1.06,1.06,0,0,1,1.38.14l.85.92a1.2,1.2,0,0,1-.15,1.77,9.24,9.24,0,0,1-5.51,2,8.05,8.05,0,0,1-5.68-2.26,7.85,7.85,0,0,1-2.35-5.57,7.76,7.76,0,0,1,2.32-5.51A8,8,0,0,1,365,93.39a9.19,9.19,0,0,1,5.78,2.16.92.92,0,0,1,.08,1.34l-1,1a1.16,1.16,0,0,1-1.54.15A5.76,5.76,0,0,0,365,96.81,4.34,4.34,0,0,0,362,98a4.43,4.43,0,0,0-1.23,3.17A4.33,4.33,0,0,0,361.89,104.3Zm33.58,2.59h0a6,6,0,0,1-4.36,1.83h-6.22a1.08,1.08,0,0,1-1.08-1.08V94.73a1.08,1.08,0,0,1,1.08-1.08h1.57a1.08,1.08,0,0,1,1.08,1.08v1.58a1.08,1.08,0,0,0,1.08,1.08h2.48a6.35,6.35,0,0,1,4.45,1.95A5.55,5.55,0,0,1,397,103,5.71,5.71,0,0,1,395.48,106.88Zm7.58.75a1.08,1.08,0,0,1-1.08,1.08h-1.6a1.09,1.09,0,0,1-1.08-1.08V94.73a1.08,1.08,0,0,1,1.08-1.08H402a1.08,1.08,0,0,1,1.08,1.08Zm24-4.5h0a6,6,0,0,1-4.33,1.8h-2.54a1.08,1.08,0,0,0-1.08,1.08v1.61a1.09,1.09,0,0,1-1.08,1.08h-1.57a1.09,1.09,0,0,1-1.08-1.08V94.73a1.08,1.08,0,0,1,1.08-1.08h6.28A5.81,5.81,0,0,1,427,95.42a5.46,5.46,0,0,1,1.59,3.89A5.58,5.58,0,0,1,427.1,103.14Zm25.77,3.67a8,8,0,0,1-5.62,2.17,8.13,8.13,0,0,1-5.74-2.26,7.81,7.81,0,0,1,5.74-13.34A8,8,0,0,1,453,95.73a7.89,7.89,0,0,1-.15,11.08Zm26.53.58a5.63,5.63,0,0,1-3.8,1.33h-7a1.08,1.08,0,0,1-1.08-1.08V94.73a1.08,1.08,0,0,1,1.08-1.08h6.71a4.92,4.92,0,0,1,3.73,1.46A4.18,4.18,0,0,1,480.14,98a3.08,3.08,0,0,1-.42,1.61,3.14,3.14,0,0,1-.64.77,3.5,3.5,0,0,1,1.21,1.2,4.12,4.12,0,0,1,.6,2.31A4.61,4.61,0,0,1,479.4,107.4Zm27.92,1.33h-1.69a1.09,1.09,0,0,1-1-.65l-.55-1.27a1.08,1.08,0,0,0-1-.65h-5.25a1.08,1.08,0,0,0-1,.65l-.56,1.27a1.09,1.09,0,0,1-1,.65h-1.6a1.09,1.09,0,0,1-1-1.53l5.73-12.91a1.09,1.09,0,0,1,1-.64h2.16a1.09,1.09,0,0,1,1,.64l5.73,12.91A1.08,1.08,0,0,1,507.32,108.72Zm25.37-5.58h0a6,6,0,0,1-4.33,1.8h-2.54a1.08,1.08,0,0,0-1.08,1.08v1.61a1.09,1.09,0,0,1-1.08,1.08h-1.57a1.08,1.08,0,0,1-1.08-1.08V94.73a1.08,1.08,0,0,1,1.08-1.08h6.28a5.81,5.81,0,0,1,4.28,1.78,5.46,5.46,0,0,1,1.59,3.89A5.58,5.58,0,0,1,532.69,103.14Zm27.46,4.5a1.09,1.09,0,0,1-1.08,1.08H557.5a1.08,1.08,0,0,1-1.08-1.08v-4.12a1.08,1.08,0,0,0-1.08-1.08h-4a1.08,1.08,0,0,0-1.08,1.08v4.12a1.09,1.09,0,0,1-1.08,1.08h-1.57a1.08,1.08,0,0,1-1.08-1.08V94.73a1.08,1.08,0,0,1,1.08-1.08h1.57a1.08,1.08,0,0,1,1.08,1.08V98A1.08,1.08,0,0,0,551.37,99h4A1.09,1.09,0,0,0,556.41,98V94.73a1.08,1.08,0,0,1,1.08-1.08h1.57a1.08,1.08,0,0,1,1.08,1.08Zm25.73,0a1.09,1.09,0,0,1-1.08,1.08h-1.54a1.08,1.08,0,0,1-1.08-1.08v-1.58a1.08,1.08,0,0,0-1.08-1.08h-1.77a1.08,1.08,0,0,0-.93.52l-1.64,2.71a1.09,1.09,0,0,1-.93.52h-1.75a1.08,1.08,0,0,1-.91-1.68l1.46-2.23a1.08,1.08,0,0,0-.18-1.39,6.43,6.43,0,0,1-1.69-2.62,1.62,1.62,0,0,1-.06-.21,5.8,5.8,0,0,1,1.17-4.93h0a6.06,6.06,0,0,1,4.72-2h6.22a1.08,1.08,0,0,1,1.08,1.08Z"/><path class="cls-2" d="M391,100.82h-2.39a1.08,1.08,0,0,0-1.08,1.08v2.31a1.08,1.08,0,0,0,1.08,1.08h2.6a1.84,1.84,0,0,0,1.43-.64,2.23,2.23,0,0,0,.55-1.63,2.59,2.59,0,0,0-.45-1.45A2.24,2.24,0,0,0,391,100.82Z"/><path class="cls-2" d="M447.24,96.78A4.15,4.15,0,0,0,444.17,98a4.79,4.79,0,0,0,0,6.32h0a4.13,4.13,0,0,0,3.05,1.23,4.06,4.06,0,0,0,2.94-1.17,4.81,4.81,0,0,0,0-6.48A4.21,4.21,0,0,0,447.24,96.78Z"/><path class="cls-2" d="M680.37,23.3a1.11,1.11,0,0,0-2,.58,6.81,6.81,0,0,1-3.88,5.57C667.6,19,646.24,19.63,639.07,27c-3.82,3.91-3.29,7.64-.49,10.56l-3.09,0a4.39,4.39,0,0,0-4.08,2.64c-1.36,3.13-2.71,6.46-4.21,10-3.19,7.55-16.09,19.92-12.6,6.58.23-.89,7.28-22.08,9.93-30.54a2.2,2.2,0,0,0-2.1-2.85h-9.76a4.39,4.39,0,0,0-4.19,3c-1.6,5-4.36,13.46-5.39,16.49-2.92,2.5-8.11,2.72-12.14.16.23-1.12,3.58-11.43,5.35-16.89a2.18,2.18,0,0,0-2.09-2.85l-10,0a4.39,4.39,0,0,0-4.12,2.89c-2.39,6.56-6.59,19.1-8,22.56-4.18,10.45-10.92,14.1-13.79,13.52-2.2-.45.57-8.09,1.63-11.46,1.4-4.44,5.62-18.63,7.43-24.7a2.2,2.2,0,0,0-2.09-2.82l-9.77-.07a4.4,4.4,0,0,0-4.2,3c-.19.57-.6,1.46-.81,2.07-5.43-6.37-18.84-10.55-29,6-4.69,7.63-5.17,13.32-12.31,21.15-5.41,5.93-18.23,12.25-16.87,1.41.71-5.63,3.21-9.91,5.11-13.92,6-12.68,14.44-16,16.39-9.86a.66.66,0,0,0,1.26,0c3.94-13.19-14.81-12.33-22.47-6.44C486.11,31.67,479,42.06,473.49,50.5c2.52-7.08,6.32-18.83,8-24.21a2.2,2.2,0,0,0-2.08-2.87l-10.28-.09a4.4,4.4,0,0,0-3.91,2.31c-1.22,2.26-3,5.59-4.11,7.38-2.94,4.9-9.49,12-11.83,14.57,3.73-10.73,3.6-16.44,2.76-19.78-.88-3.51-4.2-5.24-8.93-5.49-7.87-.43-11.46,3.78-14.65,7.37-7.62,8.58-20.82,24.59-30.22,31.29-4.69,3.34-17.52,6.48-10.65-7.28C411,47.43,415,41,417.14,33.27c1.88-6.8-3.51-11-10.84-10.9-20.73.23-28.62,12.77-34.13,26.43-2.07.5-6.12,1.29-8.76,1.72,9.4-12.16,9.33-27.2,3.06-37.23C353.79-7,289.09-1.18,269.13,40.91c-2.93,6.19-6.06,22.29,7.44,20.85a1.11,1.11,0,0,0,.58-2c-3.79-3.29-2.37-10,.59-14.56,5-7.79,14.56-21.09,29.57-25.62-1.44,4-22.94,72.2-26.24,83.72-5,17.3-9.72,23.33-17.52,24.09-9.08.88-11.42-8.23,8.08-13.32a1.08,1.08,0,0,0,.75-.72C274.7,106.1,277.24,97,279.71,90a1.1,1.1,0,0,0-1.34-1.42c-69.87,18.95.43,84.54,22.44,17.31C305.75,90.77,324,32.43,329,16.66c12.29-2.33,18.64.47,20.6,5.34,4.26,10.61-2.9,25-6.49,30.08C325.29,57.38,320.8,61.32,319,67.29c-2,6.7.82,11.22,6.82,12.14C334,80.7,347,74.06,357.94,58.22a96.17,96.17,0,0,1,12.43-2.6c-3.53,9.93,4.56,22.3,22.28,16.77,16.43-5.12,26.51-21,34.06-29.55,1.73-2,12.7-16.76,11.71-3-.53,7.43-4.7,14.22-8.47,19.84-5.72,8.51-11.77,7.38-12.85,3.76a.66.66,0,0,0-1.26,0c-2.65,7.65,7.17,13.45,20.08,8.35,7.47-2.95,15.47-14.92,22.3-23-2.6,7.51-5.19,16.62-6.7,21.18a2.2,2.2,0,0,0,2.09,2.89l10.66,0a4.39,4.39,0,0,0,3.69-2C471,66,477.79,54.15,479.14,52.26a19.49,19.49,0,0,0,.21,14.28c2.64,6.27,7.47,6.8,10.14,6.91a28.17,28.17,0,0,0,23.81-10.8c-.21,9.78,13.61,15.8,26.06,4.18.49,6.39,16.75,11.2,29.19-3.54-.78,2.19-1.77,5.26-2.2,6.73a2.19,2.19,0,0,0,2.11,2.8h9.86a4.39,4.39,0,0,0,4.19-3.07c1.44-4.54,4.29-13.62,5.35-17.18,2.59,1.87,8.92,1.86,12.39-.24-.53,1.74-1.41,5.94-2.43,9.11A8.61,8.61,0,0,0,606.07,73c11.14,0,17.06-4.57,21.29-10.43,3.66,13.86,26.59,12.91,37.21,3.42,11.52-10.3,12.68-24.55,12.24-29.07C682.5,31.18,682.57,26.11,680.37,23.3ZM403.82,31.16c4.78-.2,1.64,10.44-14.33,14.39C392.37,39.41,395,31.54,403.82,31.16ZM327.06,69.66c-2.26-2.48,3.38-8,11.69-9.16C335.49,66.49,330.18,73.1,327.06,69.66ZM541.3,54.72c-3.92,7.89-9.81,12-12.35,6.62-2.9-6.2,8.29-31.17,15-28.55,3.27,1.27,3.92,2.93,3.92,2.93S543.71,49.88,541.3,54.72Zm102,7.35c-2-2.39-1.92-8.65,4.4-19.71,4.75,1.27,10.15,1.39,14.45-.21C658.32,60.29,648,67.69,643.25,62.08Zm4.51-29c-2.24-2.76,1.64-5.25,7-4.49,3.39.48,6.51,2.51,7.66,4.84C657.69,36.36,650,35.81,647.76,33.08Z"/><path class="cls-3" d="M72.49,30C39.17,30,12.16,36.9,12.16,45.44A139.38,139.38,0,0,0,9.7,72.75c0,16.2,2.46,22.82,2.46,22.82,1.12,5.66,11.91,10.63,29.67,13.32V58.74l29.94-14,29.94,14V109.1c18.55-2.64,29.64-7.63,31.11-13.53,0,0,1.84-6.05,1.84-22.92a178.87,178.87,0,0,0-1.84-27.21c0-8.54-27-15.47-60.33-15.47"/><polygon class="cls-4" points="41.83 58.74 41.83 108.89 71.77 94.34 101.7 109.1 101.7 58.98 71.77 44.73 41.83 58.74"/><polygon class="cls-5" points="41.83 58.74 71.77 45.08 71.77 94.34 41.83 108.89 41.83 58.74"/><ellipse class="cls-6" cx="81.24" cy="80.41" rx="2.41" ry="4"/><ellipse class="cls-6" cx="90.22" cy="90.42" rx="1.54" ry="2.56"/><ellipse class="cls-6" cx="89.83" cy="66.69" rx="3.43" ry="5.69"/><path class="cls-7" d="M135.91,87c.31-3.54.55-8.25.59-14.33a174.72,174.72,0,0,0-1.92-28.14c-.4-3-5.85-16.26-62.09-16.26C14.31,28.24,11,41.33,10.35,44.82A151.57,151.57,0,0,0,7.86,72.75C7.86,88,9.7,95.16,11.61,98.85c4.13,8,31.51,14.88,65.77,14.88,36.51,0,76.71-7.41,76.71-16.54C154.09,93.34,146.93,89.79,135.91,87Zm-92.24,19v-46l26.25-12V93.19ZM73.61,93.19V47.65L99.86,60.14v46Zm59.21-20.54c0,16.25-1.75,22.33-1.76,22.38l0,.09c-1,3.84-8.71,8.9-27.48,11.84V60.82c18-3.11,28.15-9.73,28.15-9.73A201.53,201.53,0,0,1,132.82,72.65Zm-60.33-41c38.12,0,58.45,7.82,58.45,13.46,0,5.87-28.57,11.94-28.57,11.94l-29.83-14a1.83,1.83,0,0,0-1.56,0L41.52,56.85c-18.9-2.94-27.75-8-27.51-11.41C14.48,38.57,34.85,31.62,72.49,31.62ZM13,51.44c2.81,2.89,13.65,7.55,27,9.22v46.07c-18.07-3-25.2-8.08-26.07-11.52-.1-.38-2.37-6.92-2.37-22.47A181.32,181.32,0,0,1,13,51.44Z"/><rect class="cls-2" x="202.19" width="3.33" height="136.77" rx="1.67" ry="1.67"/></g></g></svg>