<?xml version="1.0" encoding="utf-8"?>
<!-- Generator: Adobe Illustrator 22.0.1, SVG Export Plug-In . SVG Version: 6.00 Build 0)  -->
<svg version="1.1" id="Слой_1" xmlns="http://www.w3.org/2000/svg" xmlns:xlink="http://www.w3.org/1999/xlink" x="0px" y="0px"
	 viewBox="0 0 684.6 136.8" style="enable-background:new 0 0 684.6 136.8;" xml:space="preserve">
<style type="text/css">
	.st0{fill:#FFFFFF;}
	.st1{fill:#DE1012;}
	.st2{fill:#F9DA6A;}
	.st3{fill:#F2BC3A;}
	.st4{fill:#E6B83A;}
</style>
<g>
	<path class="st0" d="M144.8,81.5c0.1-2.5,0.2-5.3,0.2-8.5c0-15.2-1.5-25.7-1.9-28.4c0,0,0-0.3,0-0.4V44c0-0.2-0.1-0.4-0.1-0.5
		c-0.9-5.8-5.2-10.5-12.7-14.1c-1.2-0.5-2.4-1.1-3.7-1.6c-1-0.4-2-0.7-3-1.1c-2-0.7-4.2-1.3-6.6-1.9c-0.4-0.1-0.8-0.2-1.2-0.3
		c-1.5-0.4-3.2-0.7-4.9-1c-0.4-0.1-0.8-0.2-1.3-0.2c-3.4-0.6-7-1.2-10.8-1.6l-1.4-0.2c-2.4-0.3-4.8-0.5-7.3-0.7
		c-3-0.2-6.3-0.4-9.6-0.5c-0.9,0-1.8-0.1-2.8-0.1h-0.9c-1.3,0-2.7,0-4,0h-1.5h-1.4L67,20.5l-3,0.1l-2.9,0.1l-2.9,0.2L55.3,21
		l-1.4,0.1L51,21.4l-2.8,0.3l-1.4,0.2L45.3,22L44,22.2l-1.4,0.2l-1.4,0.2l-1.3,0.2L38.6,23l-1.3,0.2L36,23.4l-1.3,0.2l-1.2,0.2
		l-1.3,0.3l-1.3,0.3l-1.2,0.3L28.5,25l-1.2,0.3l-1.2,0.3L24.9,26l-1.1,0.3l-1.1,0.3L21.6,27l-1,0.4l-1.1,0.4l-1,0.4l-1,0.4l-1,0.4
		l-1,0.5l-0.9,0.4c0,0-0.8,0.4-0.9,0.5l-0.4,0.2c-0.2,0.1-0.4,0.2-0.6,0.3c0,0-0.7,0.4-0.8,0.5l-0.4,0.3c-0.2,0.1-0.3,0.2-0.5,0.3
		l-0.3,0.2l-0.5,0.4l-0.3,0.2c-0.2,0.1-0.3,0.2-0.5,0.4c-0.1,0.1-0.3,0.2-0.3,0.3c-0.2,0.1-0.3,0.3-0.5,0.4l-0.3,0.3
		c-0.2,0.1-0.3,0.3-0.4,0.4l-0.3,0.3l-0.4,0.4l-0.4,0.4c-0.1,0.1-0.2,0.3-0.4,0.4L6,36.3c-0.1,0.1-0.2,0.3-0.4,0.5
		c-0.1,0.1-0.2,0.3-0.3,0.4c-0.1,0.2-0.2,0.3-0.4,0.6l-0.2,0.3c-0.1,0.2-0.2,0.4-0.3,0.6c-0.1,0.1-0.2,0.3-0.3,0.5
		c-0.1,0.2-0.2,0.4-0.3,0.5c-0.1,0.2-0.2,0.3-0.2,0.5c-0.1,0.2-0.2,0.4-0.3,0.7c-0.1,0.1-0.2,0.5-0.2,0.5C3,41.6,3,41.8,2.9,42
		c0.1,0,0,0.2,0,0.4S2.8,42.8,2.8,43s-0.1,0.4-0.1,0.6c0,0.2-0.1,0.4-0.1,0.6v0.1C1.9,47.4,0,58.2,0,73.1c0,15.1,2,23,2.8,25.5
		c0.6,2.5,1.8,4.7,3.5,6.8c5.5,7.2,17.8,10.3,22.6,11.5c13.1,3.3,30.4,5.1,48.7,5.1c18.6,0,38.2-1.8,53.7-5
		c21.5-4.4,31-10.4,31-19.5C162.5,90.6,156.9,85.5,144.8,81.5z"/>
	<g>
		<g>
			<path class="st0" d="M500.9,99.3c-0.2-0.4-0.8-0.4-1,0l-1.1,2.8c-0.1,0.3,0.1,0.7,0.5,0.7h2.2c0.4,0,0.6-0.4,0.5-0.7L500.9,99.3z
				"/>
			<path class="st0" d="M422.6,97h-2.4c-0.6,0-1.1,0.5-1.1,1.1v2.3c0,0.6,0.5,1.1,1.1,1.1h2.6c0.6,0,1.1-0.2,1.4-0.6l0,0
				c0.4-0.4,0.6-1,0.6-1.6c0-0.7-0.3-1.2-0.5-1.6C423.9,97.3,423.3,97,422.6,97z"/>
			<path class="st0" d="M475.7,102.5h-3.4c-0.6,0-1.1,0.5-1.1,1.1v0.7c0,0.6,0.5,1.1,1.1,1.1h3.3c0.5,0,0.9-0.2,1.1-0.4
				c0.2-0.2,0.4-0.5,0.4-1c0-0.4-0.1-0.7-0.3-1C476.6,102.7,476.2,102.5,475.7,102.5z"/>
			<path class="st0" d="M472.4,99.2h3.1c0.3,0,0.5-0.1,0.7-0.3c0.1-0.2,0.2-0.5,0.2-0.8s-0.1-1.3-1.2-1.3h-2.8
				c-0.9,0-1.1,0.6-1.1,1.2v0.1C471.3,98.7,471.7,99.2,472.4,99.2z"/>
			<path class="st0" d="M528.2,97h-2.4c-0.6,0-1.1,0.5-1.1,1.1v2.3c0,0.6,0.5,1.1,1.1,1.1h2.6c0.6,0,1.1-0.2,1.4-0.6l0,0
				c0.4-0.4,0.6-1,0.6-1.6c0-0.7-0.3-1.2-0.5-1.6C529.5,97.3,528.9,97,528.2,97z"/>
			<path class="st0" d="M581.1,97.1h-2.5c-0.7,0-1.3,0.2-1.7,0.7c-0.3,0.4-0.5,1-0.5,1.6s0.2,1.1,0.5,1.5c0.4,0.5,1,0.7,1.7,0.7h2.5
				c0.6,0,1.1-0.5,1.1-1.1v-2.3C582.2,97.6,581.7,97.1,581.1,97.1z"/>
			<path class="st0" d="M683.4,72.2C669,94.8,450.9,86.9,401,86.7c-13.8,0-68.5-0.2-86,0.7c-0.8,0-1.5,0.5-1.7,1.3
				c-2.7,7.9-5.2,16.1-8,24.8c-0.3,0.9,0.4,1.9,1.4,1.9c34.7-0.6,263.1-0.4,284.4-0.2c21.3,0.2,88.7-4.1,93.4-42.5
				C684.6,72.1,683.8,71.6,683.4,72.2z M361.9,104.3L361.9,104.3c0.8,0.8,1.9,1.3,3.1,1.3c1.3,0,2.6-0.8,3.4-1.4
				c0.4-0.3,1-0.2,1.4,0.1l0.9,0.9c0.5,0.5,0.4,1.3-0.1,1.8c-1.1,0.8-3,2-5.5,2c-2.2,0-4.2-0.8-5.7-2.3s-2.3-3.5-2.3-5.6
				s0.8-4,2.3-5.5s3.5-2.3,5.7-2.3c2.7,0,4.8,1.3,5.8,2.2c0.4,0.3,0.4,0.9,0.1,1.3l-1,1c-0.4,0.4-1.1,0.5-1.5,0.2
				c-0.8-0.6-2-1.3-3.4-1.3c-1.2,0-2.3,0.4-3,1.2c-0.8,0.8-1.2,1.9-1.2,3.2C360.7,102.4,361.1,103.5,361.9,104.3z M395.5,106.9
				L395.5,106.9c-1.1,1.2-2.7,1.8-4.4,1.8h-6.2c-0.6,0-1.1-0.5-1.1-1.1V94.7c0-0.6,0.5-1.1,1.1-1.1h1.6c0.6,0,1.1,0.5,1.1,1.1v1.6
				c0,0.6,0.5,1.1,1.1,1.1h2.5c1.6,0,3.3,0.7,4.4,1.9c0.9,1,1.4,2.3,1.4,3.7C397,104.5,396.4,105.8,395.5,106.9z M403.1,107.6
				c0,0.6-0.5,1.1-1.1,1.1h-1.6c-0.6,0-1.1-0.5-1.1-1.1V94.7c0-0.6,0.5-1.1,1.1-1.1h1.6c0.6,0,1.1,0.5,1.1,1.1V107.6z M427.1,103.1
				L427.1,103.1c-1.1,1.1-2.7,1.8-4.3,1.8h-2.5c-0.6,0-1.1,0.5-1.1,1.1v1.6c0,0.6-0.5,1.1-1.1,1.1h-1.6c-0.6,0-1.1-0.5-1.1-1.1V94.7
				c0-0.6,0.5-1.1,1.1-1.1h6.3c1.7,0,3.2,0.6,4.3,1.8c1,1,1.6,2.4,1.6,3.9C428.6,100.7,428.1,102.1,427.1,103.1z M452.9,106.8
				c-1.4,1.4-3.4,2.2-5.6,2.2s-4.2-0.8-5.7-2.3c-1.4-1.4-2.3-3.5-2.3-5.5c0-2.2,0.9-4.2,2.4-5.7c1.4-1.4,3.4-2.1,5.6-2.1
				s4.3,0.8,5.8,2.3c1.4,1.4,2.2,3.4,2.2,5.4C455.2,103.4,454.4,105.4,452.9,106.8z M479.4,107.4c-0.9,0.9-2.3,1.3-3.8,1.3h-7
				c-0.6,0-1.1-0.5-1.1-1.1V94.7c0-0.6,0.5-1.1,1.1-1.1h6.7c1.6,0,2.9,0.5,3.7,1.5c0.7,0.8,1.1,1.8,1.1,2.9c0,0.6-0.1,1.1-0.4,1.6
				c-0.2,0.3-0.4,0.5-0.6,0.8c0.5,0.3,0.9,0.7,1.2,1.2c0.4,0.6,0.6,1.4,0.6,2.3C480.9,105.3,480.4,106.5,479.4,107.4z M507.3,108.7
				h-1.7c-0.4,0-0.8-0.3-1-0.6l-0.6-1.3c-0.2-0.4-0.6-0.6-1-0.6h-5.2c-0.4,0-0.8,0.3-1,0.6l-0.6,1.3c-0.2,0.4-0.6,0.6-1,0.6h-1.6
				c-0.8,0-1.3-0.8-1-1.5l5.7-12.9c0.2-0.4,0.6-0.6,1-0.6h2.2c0.4,0,0.8,0.3,1,0.6l5.7,12.9C508.6,107.9,508.1,108.7,507.3,108.7z
				 M532.7,103.1L532.7,103.1c-1.1,1.1-2.7,1.8-4.3,1.8h-2.5c-0.6,0-1.1,0.5-1.1,1.1v1.6c0,0.6-0.5,1.1-1.1,1.1h-1.6
				c-0.6,0-1.1-0.5-1.1-1.1V94.7c0-0.6,0.5-1.1,1.1-1.1h6.3c1.7,0,3.2,0.6,4.3,1.8c1,1,1.6,2.4,1.6,3.9
				C534.2,100.7,533.7,102.1,532.7,103.1z M560.2,107.6c0,0.6-0.5,1.1-1.1,1.1h-1.6c-0.6,0-1.1-0.5-1.1-1.1v-4.1
				c0-0.6-0.5-1.1-1.1-1.1h-4c-0.6,0-1.1,0.5-1.1,1.1v4.1c0,0.6-0.5,1.1-1.1,1.1h-1.6c-0.6,0-1.1-0.5-1.1-1.1V94.7
				c0-0.6,0.5-1.1,1.1-1.1h1.6c0.6,0,1.1,0.5,1.1,1.1V98c0,0.6,0.5,1.1,1.1,1.1h4c0.6,0,1.1-0.5,1.1-1.1v-3.2c0-0.6,0.5-1.1,1.1-1.1
				h1.6c0.6,0,1.1,0.5,1.1,1.1V107.6z M585.9,107.6c0,0.6-0.5,1.1-1.1,1.1h-1.5c-0.6,0-1.1-0.5-1.1-1.1V106c0-0.6-0.5-1.1-1.1-1.1
				h-1.8c-0.4,0-0.7,0.2-0.9,0.5l-1.6,2.7c-0.2,0.3-0.5,0.5-0.9,0.5h-1.8c-0.9,0-1.4-1-0.9-1.7l1.5-2.2c0.3-0.4,0.2-1-0.2-1.4
				c-0.7-0.7-1.3-1.6-1.7-2.6c0-0.1,0-0.1-0.1-0.2c-0.4-1.9,0.1-3.6,1.2-4.9l0,0c1.1-1.3,2.8-2,4.7-2h6.2c0.6,0,1.1,0.5,1.1,1.1
				L585.9,107.6L585.9,107.6z"/>
			<path class="st0" d="M391,100.8h-2.4c-0.6,0-1.1,0.5-1.1,1.1v2.3c0,0.6,0.5,1.1,1.1,1.1h2.6c0.6,0,1.1-0.2,1.4-0.6
				c0.4-0.4,0.6-0.9,0.6-1.6c0-0.5-0.2-1-0.5-1.4C392.3,101.1,391.7,100.8,391,100.8z"/>
			<path class="st0" d="M447.2,96.8c-1.2,0-2.3,0.4-3.1,1.3c-0.8,0.8-1.2,1.9-1.2,3.2s0.4,2.4,1.2,3.2l0,0c0.8,0.8,1.8,1.2,3.1,1.2
				c1.2,0,2.2-0.4,2.9-1.2c0.8-0.8,1.3-1.9,1.3-3.2c0-1.3-0.4-2.5-1.3-3.2C449.4,97.2,448.4,96.8,447.2,96.8z"/>
		</g>
		<path class="st0" d="M680.4,23.3c-0.6-0.8-1.9-0.4-2,0.6c-0.1,2.8-2.3,4.8-3.9,5.6c-6.9-10.5-28.3-9.8-35.4-2.5
			c-3.8,3.9-3.3,7.6-0.5,10.6h-3.1c-1.8,0-3.4,1-4.1,2.6c-1.4,3.1-2.7,6.5-4.2,10c-3.2,7.6-16.1,19.9-12.6,6.6
			c0.2-0.9,7.3-22.1,9.9-30.5c0.4-1.4-0.6-2.9-2.1-2.9h-9.8c-1.9,0-3.6,1.2-4.2,3c-1.6,5-4.4,13.5-5.4,16.5
			c-2.9,2.5-8.1,2.7-12.1,0.2c0.2-1.1,3.6-11.4,5.3-16.9c0.5-1.4-0.6-2.9-2.1-2.9h-10c-1.8,0-3.5,1.2-4.1,2.9
			c-2.4,6.6-6.6,19.1-8,22.6c-4.2,10.5-10.9,14.1-13.8,13.5c-2.2-0.4,0.6-8.1,1.6-11.5c1.4-4.4,5.6-18.6,7.4-24.7
			c0.4-1.4-0.6-2.8-2.1-2.8l-9.8-0.1c-1.9,0-3.6,1.2-4.2,3c-0.2,0.6-0.6,1.5-0.8,2.1c-5.4-6.4-18.8-10.5-29,6
			c-4.7,7.6-5.2,13.3-12.3,21.1c-5.4,5.9-18.2,12.3-16.9,1.4c0.7-5.6,3.2-9.9,5.1-13.9c6-12.7,14.4-16,16.4-9.9
			c0.2,0.6,1.1,0.7,1.3,0c3.9-13.2-14.8-12.3-22.5-6.4c-6.6,5.1-13.7,15.4-19.2,23.9c2.5-7.1,6.3-18.8,8-24.2
			c0.5-1.4-0.6-2.9-2.1-2.9l-10.3-0.1c-1.6,0-3.1,0.9-3.9,2.3c-1.2,2.3-3,5.6-4.1,7.4c-2.9,4.9-9.5,12-11.8,14.6
			c3.7-10.7,3.6-16.4,2.8-19.8c-0.9-3.5-4.2-5.2-8.9-5.5c-7.9-0.4-11.5,3.8-14.7,7.4c-7.6,8.6-20.8,24.6-30.2,31.3
			c-4.7,3.3-17.5,6.5-10.6-7.3C411,47.4,415,41,417.1,33.3c1.9-6.8-3.5-11-10.8-10.9c-20.7,0.2-28.6,12.8-34.1,26.4
			c-2.1,0.5-6.1,1.3-8.8,1.7c9.4-12.2,9.3-27.2,3.1-37.2C353.8-7,289.1-1.2,269.1,40.9c-2.9,6.2-6.1,22.3,7.4,20.8
			c1-0.1,1.3-1.3,0.6-2c-3.8-3.3-2.4-10,0.6-14.6c5-7.8,14.6-21.1,29.6-25.6c-1.4,4-22.9,72.2-26.2,83.7c-5,17.3-9.7,23.3-17.5,24.1
			c-9.1,0.9-11.4-8.2,8.1-13.3c0.4-0.1,0.6-0.4,0.8-0.7c2.3-7.3,4.9-16.4,7.3-23.4c0.3-0.8-0.5-1.7-1.3-1.4
			c-69.9,18.9,0.4,84.5,22.4,17.3c4.9-15.1,23.2-73.4,28.1-89.2c12.3-2.3,18.6,0.5,20.6,5.3c4.3,10.6-2.9,25-6.5,30.1
			c-17.8,5.3-22.3,9.2-24.1,15.2c-2,6.7,0.8,11.2,6.8,12.1c8.2,1.3,21.2-5.4,32.1-21.2c3.8-1,6.2-1.7,12.4-2.6
			c-3.5,9.9,4.6,22.3,22.3,16.8c16.4-5.1,26.5-21,34.1-29.6c1.7-2,12.7-16.8,11.7-3c-0.5,7.4-4.7,14.2-8.5,19.8
			c-5.7,8.5-11.8,7.4-12.9,3.8c-0.2-0.6-1-0.6-1.3,0c-2.6,7.7,7.2,13.4,20.1,8.4c7.5-2.9,15.5-14.9,22.3-23
			c-2.6,7.5-5.2,16.6-6.7,21.2c-0.5,1.4,0.6,2.9,2.1,2.9h10.7c1.5,0,2.9-0.8,3.7-2c3.1-4.8,9.8-16.6,11.2-18.5
			c-2.2,5.3-1.1,11.1,0.2,14.3c2.6,6.3,7.5,6.8,10.1,6.9c3.5,0.1,15.2,0.2,23.8-10.8c-0.2,9.8,13.6,15.8,26.1,4.2
			c0.5,6.4,16.7,11.2,29.2-3.5c-0.8,2.2-1.8,5.3-2.2,6.7c-0.4,1.4,0.7,2.8,2.1,2.8h9.9c1.9,0,3.6-1.2,4.2-3.1
			c1.4-4.5,4.3-13.6,5.4-17.2c2.6,1.9,8.9,1.9,12.4-0.2c-0.5,1.7-1.4,5.9-2.4,9.1C596,67.3,600,73,606.2,73
			c11.1,0,17.1-4.6,21.3-10.4c3.7,13.9,26.6,12.9,37.2,3.4c11.5-10.3,12.7-24.6,12.2-29.1C682.5,31.2,682.6,26.1,680.4,23.3z
			 M403.8,31.2c4.8-0.2,1.6,10.4-14.3,14.4C392.4,39.4,395,31.5,403.8,31.2z M327.1,69.7c-2.3-2.5,3.4-8,11.7-9.2
			C335.5,66.5,330.2,73.1,327.1,69.7z M541.3,54.7c-3.9,7.9-9.8,12-12.3,6.6c-2.9-6.2,8.3-31.2,15-28.5c3.3,1.3,3.9,2.9,3.9,2.9
			S543.7,49.9,541.3,54.7z M643.3,62.1c-2-2.4-1.9-8.6,4.4-19.7c4.7,1.3,10.2,1.4,14.5-0.2C658.3,60.3,648,67.7,643.3,62.1z
			 M647.8,33.1c-2.2-2.8,1.6-5.3,7-4.5c3.4,0.5,6.5,2.5,7.7,4.8C657.7,36.4,650,35.8,647.8,33.1z"/>
	</g>
	<g>
		<path class="st1" d="M72.5,30c-33.3,0-60.3,6.9-60.3,15.5c0,0-2.5,11.1-2.5,27.3s2.5,22.8,2.5,22.8c1.1,5.7,11.9,10.6,29.7,13.3
			V58.7l29.9-14l29.9,14v50.4c18.6-2.6,29.6-7.6,31.1-13.5c0,0,1.8-6.1,1.8-22.9c0-16.4-1.8-27.2-1.8-27.2
			C132.8,36.9,105.8,30,72.5,30"/>
		<polygon class="st2" points="41.8,58.7 41.8,108.9 71.8,94.3 101.7,109.1 101.7,59 71.8,44.7 		"/>
		<polygon class="st3" points="41.8,58.7 71.8,45.1 71.8,94.3 41.8,108.9 		"/>
		<ellipse class="st4" cx="81.2" cy="80.4" rx="2.4" ry="4"/>
		<ellipse class="st4" cx="90.2" cy="90.4" rx="1.5" ry="2.6"/>
		<ellipse class="st4" cx="89.8" cy="66.7" rx="3.4" ry="5.7"/>
		<path d="M135.9,87c0.3-3.5,0.6-8.2,0.6-14.3c0.1-13.8-1-21.2-1.9-28.1c-0.4-3-5.9-16.3-62.1-16.3c-58.2,0-61.5,13.1-62.1,16.6
			c-0.3,1.4-2.5,12.6-2.5,27.9c0,15.2,1.8,22.4,3.8,26.1c4.1,8,31.5,14.9,65.8,14.9c36.5,0,76.7-7.4,76.7-16.5
			C154.1,93.3,146.9,89.8,135.9,87z M43.7,105.9v-46l26.3-12v45.2L43.7,105.9z M73.6,93.2V47.7l26.3,12.5v46L73.6,93.2z M132.8,72.6
			c0,16.2-1.7,22.3-1.8,22.4v0.1c-1,3.8-8.7,8.9-27.5,11.8V60.8c18-3.1,28.1-9.7,28.1-9.7C132.2,55.8,132.8,63.3,132.8,72.6z
			 M72.5,31.6c38.1,0,58.5,7.8,58.5,13.5C131,51,102.4,57,102.4,57L72.6,43c-0.5-0.2-1.1-0.2-1.6,0L41.5,56.9
			C22.6,54,13.7,48.9,14,45.5C14.5,38.6,34.9,31.6,72.5,31.6z M13,51.4c2.8,2.9,13.6,7.5,27,9.2v46.1c-18.1-3-25.2-8.1-26.1-11.5
			c-0.1-0.4-2.4-6.9-2.4-22.5C11.5,63.4,12.8,52.1,13,51.4z"/>
	</g>
	<path class="st0" d="M203.9,136.8L203.9,136.8c-0.9,0-1.7-0.7-1.7-1.7V1.7c0-0.9,0.7-1.7,1.7-1.7l0,0c0.9,0,1.7,0.7,1.7,1.7v133.4
		C205.5,136,204.8,136.8,203.9,136.8z"/>
</g>
</svg>
