<svg xmlns="http://www.w3.org/2000/svg" viewBox="0 0 21.75 17.85"><defs><style>.cls-1{fill:#0070ba;}.cls-2{fill:none;stroke:#0070ba;stroke-linecap:round;stroke-miterlimit:10;stroke-width:0.99px;}</style></defs><title>Ресурс 1</title><g id="Слой_2" data-name="Слой 2"><g id="Layer_3" data-name="Layer 3"><path class="cls-1" d="M19.65,17.85H2.11A2.11,2.11,0,0,1,0,15.75V2.11A2.11,2.11,0,0,1,2.11,0H19.65a2.11,2.11,0,0,1,2.11,2.11V15.75a2.11,2.11,0,0,1-2.11,2.11ZM2.11,2A.1.1,0,0,0,2,2.11V15.75a.11.11,0,0,0,.11.11H19.65a.11.11,0,0,0,.11-.11V2.11A.11.11,0,0,0,19.65,2Z"/><line class="cls-2" x1="20.18" y1="1.45" x2="11.18" y2="10.05"/><line class="cls-2" x1="11.18" y1="10.05" x2="1.34" y2="1.37"/><line class="cls-2" x1="1.47" y1="16.54" x2="9.45" y2="8.55"/><line class="cls-2" x1="20.47" y1="16.5" x2="12.87" y2="8.5"/></g></g></svg>