<?xml version="1.0" encoding="utf-8"?>
<!-- Generator: Adobe Illustrator 21.0.0, SVG Export Plug-In . SVG Version: 6.00 Build 0)  -->
<svg version="1.1" id="Isolation_Mode" xmlns="http://www.w3.org/2000/svg" xmlns:xlink="http://www.w3.org/1999/xlink" x="0px"
	 y="0px" viewBox="0 0 1000 1000" style="enable-background:new 0 0 1000 1000;" xml:space="preserve">
<style type="text/css">
	.st0{fill:#C9D6D8;}
</style>
<g>
	<g>
		<path class="st0" d="M735.7,725.5c58.3-58.7,94.5-139.4,94.5-228.5c0-178.8-145.4-324.2-324.2-324.2
			c-89.1,0-169.9,36.1-228.5,94.5c-0.2,0.2-0.5,0.3-0.7,0.5c-0.2,0.2-0.3,0.5-0.5,0.7c-58.3,58.7-94.5,139.4-94.5,228.5
			c0,178.8,145.4,324.2,324.2,324.2c89.1,0,169.9-36.1,228.5-94.5c0.2-0.2,0.5-0.3,0.7-0.5C735.4,726,735.5,725.8,735.7,725.5z
			 M816.9,497c0,83.4-33,159.1-86.6,215L290.9,272.6c55.9-53.6,131.6-86.6,215-86.6C677.4,186,816.9,325.5,816.9,497z M195,497
			c0-83.4,33-159.1,86.6-215l439.4,439.4C665,774.9,589.3,808,505.9,808C334.5,808,195,668.5,195,497z"/>
	</g>
	<g>
		<g>
			<path class="st0" d="M465.4,556.2c-15-9.4-25.6-24.7-29.1-42c-0.7-3.6-4.2-5.9-7.8-5.2c-3.6,0.7-5.9,4.2-5.2,7.8
				c4.3,20.8,17,39.2,35,50.5c1.1,0.7,2.3,1,3.5,1c2.2,0,4.3-1.1,5.6-3.1C469.4,562.3,468.5,558.2,465.4,556.2z"/>
			<path class="st0" d="M461.8,570.6c-1.6,0-3.3-0.5-4.7-1.3c-18.5-11.7-31.6-30.6-36-51.9c-1-4.7,2.1-9.4,6.8-10.3
				c4.7-1,9.4,2.1,10.3,6.8c3.4,16.7,13.7,31.5,28.2,40.6l0,0c2,1.2,3.3,3.2,3.9,5.5c0.5,2.3,0.1,4.6-1.1,6.6
				C467.6,569.1,464.9,570.6,461.8,570.6z M429.8,511.1c-0.3,0-0.6,0-0.9,0.1c-2.4,0.5-4,2.9-3.5,5.3c4.1,20.2,16.6,38.1,34.1,49.1
				c0.7,0.5,1.5,0.7,2.4,0.7c1.5,0,3-0.8,3.8-2.1c0.6-1,0.8-2.2,0.6-3.4c-0.3-1.2-1-2.2-2-2.8l0,0c-15.5-9.7-26.4-25.5-30.1-43.3
				C433.7,512.6,431.9,511.1,429.8,511.1z"/>
		</g>
		<g>
			<g>
				<path class="st0" d="M498.4,612.1c26,0,49.9-9.3,68.6-24.7l-9.4-9.4c-16.2,13-36.8,20.9-59.1,20.9c-52.2,0-94.7-42.5-94.7-94.7
					c0-22.4,7.8-42.9,20.9-59.1l-9.4-9.4c-15.4,18.7-24.7,42.6-24.7,68.6C390.5,563.7,438.9,612.1,498.4,612.1z"/>
				<path class="st0" d="M498.4,614.2c-60.7,0-110-49.4-110-110c0-25.5,8.9-50.3,25.1-69.9l1.5-1.8l12.5,12.5l-1.2,1.5
					c-13.3,16.6-20.4,36.6-20.4,57.8c0,51,41.5,92.5,92.5,92.5c21.2,0,41.2-7.1,57.8-20.4l1.5-1.2l12.5,12.5l-1.8,1.5
					C548.7,605.3,523.9,614.2,498.4,614.2z M415.3,438.8c-14.7,18.6-22.7,41.7-22.7,65.4c0,58.3,47.4,105.8,105.8,105.8
					c23.7,0,46.8-8,65.4-22.7l-6.4-6.4C540.3,594,520,601,498.4,601c-53.4,0-96.8-43.4-96.8-96.8c0-21.5,7-41.9,20.2-59L415.3,438.8
					z"/>
			</g>
			<g>
				<path class="st0" d="M510.4,388.8c-23.9,0-46,7.9-63.9,21.2l9.4,9.4c15.4-10.9,34.2-17.4,54.5-17.4c52.2,0,94.7,42.5,94.7,94.7
					c0,20.3-6.5,39.1-17.4,54.5l9.4,9.4c13.2-17.9,21.2-40,21.2-63.9C618.3,437.2,569.9,388.8,510.4,388.8z"/>
				<path class="st0" d="M597.4,563.9l-12.5-12.5l1-1.5c11.1-15.7,17-34.1,17-53.3c0-51-41.5-92.5-92.5-92.5
					c-19.1,0-37.5,5.9-53.3,17l-1.5,1l-12.5-12.5l2-1.5c19.1-14.1,41.7-21.6,65.2-21.6c60.7,0,110,49.4,110,110
					c0,23.5-7.5,46.1-21.6,65.2L597.4,563.9z M590.5,550.9l6.4,6.4c12.6-17.9,19.3-38.9,19.3-60.7c0-58.3-47.4-105.8-105.8-105.8
					c-21.8,0-42.7,6.7-60.7,19.3l6.4,6.4c16.1-11,34.8-16.8,54.2-16.8c53.4,0,96.8,43.4,96.8,96.8
					C607.2,516.1,601.5,534.8,590.5,550.9z"/>
			</g>
		</g>
		<g>
			<g>
				<path class="st0" d="M689.9,362.2h-65.4c-6.6,0-12.7-3.3-16.4-8.8l-19.6-29.6c-7.9-11.9-21.1-19-35.4-19h-76.2
					c-14.3,0-27.5,7.1-35.4,19l-19.6,29.6c-3.6,5.5-9.8,8.8-16.4,8.8h-6.8l12.5,12.5c8.8-1.6,16.7-6.4,21.7-14l19.6-29.6
					c5.4-8.2,14.5-13.1,24.4-13.1h76.2c9.8,0,18.9,4.9,24.4,13.1l19.6,29.6c6.1,9.2,16.3,14.7,27.4,14.7h65.4
					c13,0,23.6,10.6,23.6,23.6v214c0,13-10.6,23.6-23.6,23.6h-16.8l13.2,13.2h3.5c20.3,0,36.8-16.5,36.8-36.8V399
					C726.7,378.7,710.2,362.2,689.9,362.2z"/>
				<path class="st0" d="M689.9,651.9h-4.4L668,634.4h21.9c11.8,0,21.5-9.6,21.5-21.4V399c0-11.8-9.6-21.5-21.5-21.5h-65.4
					c-11.8,0-22.7-5.9-29.2-15.7l-19.6-29.6c-5-7.6-13.5-12.1-22.6-12.1h-76.2c-9.1,0-17.5,4.5-22.6,12.1l-19.6,29.6
					c-5.2,7.9-13.4,13.2-23.1,15l-1.1,0.2L393.6,360h11.9c5.9,0,11.4-2.9,14.6-7.9l19.6-29.6c8.3-12.5,22.2-20,37.2-20h76.2
					c15,0,28.9,7.5,37.2,20l19.6,29.6c3.2,4.9,8.7,7.9,14.6,7.9h65.4c21.5,0,38.9,17.5,38.9,39v214
					C728.8,634.4,711.3,651.9,689.9,651.9z M687.2,647.6h2.7c19.1,0,34.7-15.6,34.7-34.7V399c0-19.1-15.6-34.7-34.7-34.7h-65.4
					c-7.3,0-14.1-3.7-18.2-9.8l-19.6-29.6c-7.5-11.3-20-18.1-33.6-18.1h-76.2c-13.6,0-26.1,6.8-33.6,18.1l-19.6,29.6
					c-4,6.1-10.8,9.8-18.2,9.8h-1.6l8.1,8.1c8-1.7,14.8-6.3,19.2-12.9l19.6-29.6c5.8-8.8,15.6-14.1,26.1-14.1h76.2
					c10.5,0,20.3,5.3,26.1,14.1l19.6,29.6c5.7,8.6,15.3,13.8,25.6,13.8h65.4c14.2,0,25.7,11.5,25.7,25.7v214
					c0,14.2-11.5,25.7-25.7,25.7h-11.6L687.2,647.6z"/>
			</g>
			<g>
				<path class="st0" d="M322,649.8h308.9l-13.2-13.2H322c-13,0-23.6-10.6-23.6-23.6V399c0-13,10.6-23.6,23.6-23.6h34.5l-13.2-13.2
					H322c-20.3,0-36.8,16.5-36.8,36.8v214C285.2,633.3,301.7,649.8,322,649.8z"/>
				<path class="st0" d="M636,651.9H322c-21.5,0-38.9-17.5-38.9-38.9V399c0-21.5,17.5-39,38.9-39h22.1l17.5,17.5H322
					c-11.8,0-21.5,9.6-21.5,21.5v214c0,11.8,9.6,21.4,21.5,21.4h296.5L636,651.9z M322,364.3c-19.1,0-34.7,15.6-34.7,34.7v214
					c0,19.1,15.6,34.7,34.7,34.7h303.7l-9-9H322c-14.2,0-25.7-11.5-25.7-25.7V399c0-14.2,11.5-25.7,25.7-25.7h29.3l-9-9H322z"/>
			</g>
		</g>
	</g>
</g>
</svg>
