<svg xmlns="http://www.w3.org/2000/svg" viewBox="0 0 24.75 17.85"><defs><style>.cls-1{fill:#0070ba;}</style></defs><title>Ресурс 1</title><g id="Слой_2" data-name="Слой 2"><g id="Layer_3" data-name="Layer 3"><path class="cls-1" d="M22.65,17.85H2.11A2.11,2.11,0,0,1,0,15.75V2.11A2.11,2.11,0,0,1,2.11,0H22.65a2.11,2.11,0,0,1,2.11,2.11V15.75a2.11,2.11,0,0,1-2.11,2.11ZM2.11,2A.1.1,0,0,0,2,2.11V15.75a.11.11,0,0,0,.11.11H22.65a.11.11,0,0,0,.11-.11V2.11A.11.11,0,0,0,22.65,2Z"/><rect class="cls-1" x="1.68" y="6.25" width="21.33" height="1"/><path class="cls-1" d="M11.1,10.55H4.56a.5.5,0,1,1,0-1H11.1a.5.5,0,1,1,0,1Z"/></g></g></svg>