<svg xmlns="http://www.w3.org/2000/svg" viewBox="0 0 24.75 26.73"><defs><style>.cls-1{fill:#0070ba;}</style></defs><title>Ресурс 1</title><g id="Слой_2" data-name="Слой 2"><g id="Layer_3" data-name="Layer 3"><path class="cls-1" d="M22.65,26.73H2.11A2.11,2.11,0,0,1,0,24.62V2.11A2.11,2.11,0,0,1,2.11,0H22.65a2.11,2.11,0,0,1,2.11,2.11V24.62a2.11,2.11,0,0,1-2.11,2.11ZM2.11,2A.1.1,0,0,0,2,2.11V24.62a.11.11,0,0,0,.11.11H22.65a.11.11,0,0,0,.11-.11V2.11A.11.11,0,0,0,22.65,2Z"/><path class="cls-1" d="M11.1,4.93H4.56a.5.5,0,1,1,0-1H11.1a.5.5,0,1,1,0,1Z"/><path class="cls-1" d="M11.1,7.24H4.56a.5.5,0,1,1,0-1H11.1a.5.5,0,1,1,0,1Z"/><path class="cls-1" d="M20.1,4.93H13.56a.5.5,0,1,1,0-1H20.1a.5.5,0,1,1,0,1Z"/><path class="cls-1" d="M20.1,7.24H13.56a.5.5,0,1,1,0-1H20.1a.5.5,0,1,1,0,1Z"/><path class="cls-1" d="M20.1,11.66H4.56a.5.5,0,1,1,0-1H20.1a.5.5,0,0,1,0,1Z"/><path class="cls-1" d="M9.47,14.16H4.61a.5.5,0,1,1,0-1H9.47a.5.5,0,0,1,0,1Z"/><path class="cls-1" d="M13.06,14.16H11.46a.5.5,0,1,1,0-1h1.59a.5.5,0,0,1,0,1Z"/><path class="cls-1" d="M16.58,14.16H15a.5.5,0,1,1,0-1h1.59a.5.5,0,1,1,0,1Z"/><path class="cls-1" d="M20.1,14.16H18.5a.5.5,0,1,1,0-1H20.1a.5.5,0,0,1,0,1Z"/><path class="cls-1" d="M9.5,16.38H4.63a.5.5,0,1,1,0-1H9.5a.5.5,0,0,1,0,1Z"/><path class="cls-1" d="M13.08,16.38H11.49a.5.5,0,1,1,0-1h1.59a.5.5,0,1,1,0,1Z"/><path class="cls-1" d="M16.6,16.38H15a.5.5,0,1,1,0-1H16.6a.5.5,0,1,1,0,1Z"/><path class="cls-1" d="M20.12,16.38H18.53a.5.5,0,1,1,0-1h1.59a.5.5,0,0,1,0,1Z"/><path class="cls-1" d="M9.48,18.66H4.62a.5.5,0,1,1,0-1H9.48a.5.5,0,0,1,0,1Z"/><path class="cls-1" d="M13.07,18.66H11.48a.5.5,0,1,1,0-1h1.59a.5.5,0,0,1,0,1Z"/><path class="cls-1" d="M16.59,18.66H15a.5.5,0,1,1,0-1h1.59a.5.5,0,1,1,0,1Z"/><path class="cls-1" d="M20.11,18.66H18.51a.5.5,0,1,1,0-1h1.59a.5.5,0,0,1,0,1Z"/><path class="cls-1" d="M9.51,20.88H4.65a.5.5,0,1,1,0-1H9.51a.5.5,0,1,1,0,1Z"/><path class="cls-1" d="M13.1,20.88H11.5a.5.5,0,1,1,0-1H13.1a.5.5,0,0,1,0,1Z"/><path class="cls-1" d="M16.61,20.88H15a.5.5,0,1,1,0-1h1.59a.5.5,0,0,1,0,1Z"/><path class="cls-1" d="M20.13,20.88H18.54a.5.5,0,1,1,0-1h1.59a.5.5,0,0,1,0,1Z"/></g></g></svg>