<svg xmlns="http://www.w3.org/2000/svg" viewBox="0 0 24.75 20.88"><defs><style>.cls-1,.cls-2{fill:#0070ba;}.cls-2{font-size:6.69px;font-family:DINPro-Bold, DINPro;font-weight:700;}</style></defs><title>Ресурс 1</title><g id="Слой_2" data-name="Слой 2"><g id="Layer_3" data-name="Layer 3"><path class="cls-1" d="M22.65,15.73H2.11A2.11,2.11,0,0,1,0,13.62V2.11A2.11,2.11,0,0,1,2.11,0H22.65a2.11,2.11,0,0,1,2.11,2.11V13.62a2.11,2.11,0,0,1-2.11,2.11ZM2.11,2A.1.1,0,0,0,2,2.11V13.62a.11.11,0,0,0,.11.11H22.65a.11.11,0,0,0,.11-.11V2.11A.11.11,0,0,0,22.65,2Z"/><path class="cls-1" d="M8.1,6.93H4.56a.5.5,0,1,1,0-1H8.1a.5.5,0,0,1,0,1Z"/><path class="cls-1" d="M8.1,9.24H4.56a.5.5,0,1,1,0-1H8.1a.5.5,0,0,1,0,1Z"/><path class="cls-1" d="M20.1,6.93H16.56a.5.5,0,1,1,0-1H20.1a.5.5,0,1,1,0,1Z"/><path class="cls-1" d="M20.1,9.24H16.56a.5.5,0,1,1,0-1H20.1a.5.5,0,1,1,0,1Z"/><path class="cls-1" d="M22.77,18H2.92a.5.5,0,1,1,0-1H22.77a.5.5,0,1,1,0,1Z"/><text class="cls-2" transform="translate(10.82 9.64)">Р</text><rect class="cls-1" x="10.49" y="7.03" width="2.35" height="0.81"/><rect class="cls-1" x="10.49" y="8.31" width="3.42" height="0.81"/><path class="cls-1" d="M18.77,20.88H6.92a.5.5,0,1,1,0-1H18.77a.5.5,0,0,1,0,1Z"/></g></g></svg>