<?xml version="1.0" encoding="utf-8"?>
<!-- Generator: Adobe Illustrator 22.0.1, SVG Export Plug-In . SVG Version: 6.00 Build 0)  -->
<svg version="1.1" id="Слой_1" xmlns="http://www.w3.org/2000/svg" xmlns:xlink="http://www.w3.org/1999/xlink" x="0px" y="0px"
	 viewBox="0 0 17.7 17.7" style="enable-background:new 0 0 17.7 17.7;" xml:space="preserve">
<style type="text/css">
	.st0{fill:#FFCF40;}
	.st1{fill:#FFFFFF;}
</style>
<g>
	<path class="st1" d="M8.9,7.4C8,7.4,7.4,8.1,7.4,8.9c0,0.8,0.7,1.5,1.5,1.5c0.8,0,1.5-0.7,1.5-1.5C10.4,8.1,9.7,7.4,8.9,7.4z"/>
	<path class="st1" d="M12.5,6.1c-0.1-0.2-0.2-0.4-0.3-0.5c-0.2-0.2-0.3-0.3-0.5-0.3c-0.2-0.1-0.4-0.1-0.9-0.2c-0.5,0-0.7,0-1.9,0
		c-1.3,0-1.4,0-1.9,0c-0.5,0-0.7,0.1-0.9,0.2C5.9,5.4,5.7,5.5,5.6,5.6C5.4,5.8,5.3,5.9,5.2,6.1C5.2,6.3,5.1,6.5,5.1,7
		c0,0.5,0,0.7,0,1.9c0,1.3,0,1.4,0,1.9c0,0.5,0.1,0.7,0.2,0.9c0.1,0.2,0.2,0.4,0.3,0.5c0.2,0.2,0.3,0.3,0.5,0.3
		c0.2,0.1,0.4,0.1,0.9,0.2c0.5,0,0.7,0,1.9,0c1.3,0,1.4,0,1.9,0c0.5,0,0.7-0.1,0.9-0.2c0.2-0.1,0.4-0.2,0.5-0.3
		c0.2-0.2,0.3-0.3,0.3-0.5c0.1-0.2,0.1-0.4,0.2-0.9c0-0.5,0-0.7,0-1.9c0-1.3,0-1.4,0-1.9C12.7,6.5,12.6,6.3,12.5,6.1z M8.9,11.5
		c-1.4,0-2.6-1.2-2.6-2.6c0-1.4,1.2-2.6,2.6-2.6s2.6,1.2,2.6,2.6C11.4,10.4,10.3,11.5,8.9,11.5z M11.4,7c-0.4,0-0.7-0.3-0.7-0.7
		s0.3-0.7,0.7-0.7c0.4,0,0.7,0.3,0.7,0.7S11.8,7,11.4,7z"/>
	<path class="st1" d="M8.8,0C4,0,0,4,0,8.8c0,4.9,4,8.8,8.8,8.8c4.9,0,8.8-4,8.8-8.8C17.7,4,13.7,0,8.8,0z M13.8,10.9
		c0,0.5-0.1,0.8-0.2,1.2c-0.1,0.4-0.3,0.6-0.6,0.9c-0.3,0.3-0.5,0.4-0.9,0.6c-0.4,0.1-0.7,0.2-1.2,0.2c-0.5,0-0.7,0-2,0
		c-1.3,0-1.5,0-2,0c-0.5,0-0.8-0.1-1.2-0.2C5.3,13.5,5,13.3,4.8,13c-0.3-0.3-0.4-0.5-0.6-0.9C4.1,11.8,4,11.4,4,10.9
		c0-0.5,0-0.7,0-2c0-1.3,0-1.5,0-2c0-0.5,0.1-0.8,0.2-1.2c0.1-0.4,0.3-0.6,0.6-0.9C5,4.6,5.3,4.4,5.7,4.3C6,4.1,6.4,4.1,6.9,4
		c0.5,0,0.7,0,2,0c1.3,0,1.5,0,2,0c0.5,0,0.8,0.1,1.2,0.2c0.4,0.1,0.6,0.3,0.9,0.6c0.3,0.3,0.4,0.5,0.6,0.9c0.1,0.4,0.2,0.7,0.2,1.2
		c0,0.5,0,0.7,0,2C13.8,10.2,13.8,10.4,13.8,10.9z"/>
</g>
</svg>
