<?xml version="1.0" encoding="utf-8"?>
<!-- Generator: Adobe Illustrator 22.0.1, SVG Export Plug-In . SVG Version: 6.00 Build 0)  -->
<svg version="1.1" id="Слой_1" xmlns="http://www.w3.org/2000/svg" xmlns:xlink="http://www.w3.org/1999/xlink" x="0px" y="0px"
	 viewBox="0 0 17.7 17.7" style="enable-background:new 0 0 17.7 17.7;" xml:space="preserve">
<style type="text/css">
	.st0{fill:#FFCF40;}
	.st1{fill:#000;}
</style>
<path class="st1" d="M8.8,0C4,0,0,4,0,8.8c0,4.9,4,8.8,8.8,8.8c4.9,0,8.8-4,8.8-8.8C17.7,4,13.7,0,8.8,0z M13.4,12.3l-1.4,0
	c0,0-0.3,0.1-0.7-0.2c-0.5-0.4-1-1.3-1.4-1.2c-0.4,0.1-0.4,1-0.4,1s0,0.2-0.1,0.3c-0.1,0.1-0.3,0.1-0.3,0.1H8.5c0,0-1.4,0.1-2.6-1.2
	C4.6,9.7,3.4,7,3.4,7s-0.1-0.2,0-0.3c0.1-0.1,0.3-0.1,0.3-0.1l1.5,0c0,0,0.1,0,0.2,0.1c0.1,0.1,0.1,0.2,0.1,0.2s0.2,0.6,0.6,1.2
	c0.6,1.1,0.9,1.3,1.1,1.2c0.3-0.2,0.2-1.5,0.2-1.5s0-0.5-0.2-0.7C7.2,6.9,7,6.8,6.9,6.8c-0.1,0,0.1-0.2,0.2-0.3
	c0.3-0.1,0.7-0.1,1.3-0.1c0.4,0,0.6,0,0.7,0.1C9.7,6.6,9.5,7,9.5,8.2c0,0.4-0.1,0.9,0.2,1.1c0.1,0.1,0.4,0,1.1-1.2
	c0.3-0.6,0.6-1.2,0.6-1.2s0.1-0.1,0.1-0.2c0.1-0.1,0.2,0,0.2,0l1.6,0c0,0,0.5-0.1,0.6,0.2C13.9,7,13.7,7.5,13,8.4
	c-1.1,1.4-1.2,1.3-0.3,2.1c0.8,0.8,1,1.2,1,1.2C14.1,12.3,13.4,12.3,13.4,12.3z"/>
</svg>
