<?xml version="1.0" encoding="utf-8"?>
<!-- Generator: Adobe Illustrator 22.0.1, SVG Export Plug-In . SVG Version: 6.00 Build 0)  -->
<svg version="1.1" id="Слой_1" xmlns="http://www.w3.org/2000/svg" xmlns:xlink="http://www.w3.org/1999/xlink" x="0px" y="0px"
	 viewBox="0 0 17.7 17.7" style="enable-background:new 0 0 17.7 17.7;" xml:space="preserve">
<style type="text/css">
	.st0{fill:#FFCF40;}
	.st1{fill:#FFFFFF;}
</style>
<path class="st0" d="M8.8,0C4,0,0,4,0,8.8c0,4.9,4,8.8,8.8,8.8c4.9,0,8.8-4,8.8-8.8C17.7,4,13.7,0,8.8,0z M11.1,8.9H9.7
	c0,2.3,0,5.1,0,5.1H7.6c0,0,0-2.8,0-5.1h-1V7.1h1V5.9c0-0.8,0.4-2.2,2.2-2.2l1.6,0v1.8c0,0-1,0-1.1,0S9.7,5.7,9.7,6.1v1.1h1.6
	L11.1,8.9z"/>
</svg>
