<svg xmlns="http://www.w3.org/2000/svg" viewBox="0 0 18.49 17.8"><defs><style>.cls-1{fill:#0070ba;}</style></defs><title>Ресурс 1</title><g id="Слой_2" data-name="Слой 2"><g id="Layer_3" data-name="Layer 3"><path class="cls-1" d="M9.25,2a.25.25,0,0,1,.23.14l2,4.14a.26.26,0,0,0,.19.14l4.57.66a.26.26,0,0,1,.14.44l-3.31,3.23A.26.26,0,0,0,13,11l.78,4.56a.25.25,0,0,1-.37.27L9.36,13.64a.26.26,0,0,0-.24,0L5,15.79a.25.25,0,0,1-.37-.27L5.45,11a.26.26,0,0,0-.07-.23L2.06,7.51a.26.26,0,0,1,.14-.44l4.57-.66A.26.26,0,0,0,7,6.27L9,2.13A.25.25,0,0,1,9.25,2m0-2a2.23,2.23,0,0,0-2,1.25L5.59,4.58l-3.67.53A2.24,2.24,0,0,0,.68,8.93l2.66,2.59-.63,3.66A2.24,2.24,0,0,0,6,17.54l3.29-1.73,3.29,1.73a2.24,2.24,0,0,0,3.25-2.36l-.63-3.66,2.66-2.59a2.24,2.24,0,0,0-1.24-3.82L12.9,4.58,11.25,1.25A2.23,2.23,0,0,0,9.25,0Z"/></g></g></svg>