<svg xmlns="http://www.w3.org/2000/svg" viewBox="0 0 25.36 21"><defs><style>.cls-1{fill:#80b8dd;}</style></defs><title>Ресурс 1</title><g id="Слой_2" data-name="Слой 2"><g id="Layer_3" data-name="Layer 3"><path class="cls-1" d="M21.8,15.05H8.36a1,1,0,0,1-1-.73L4.84,5a1,1,0,0,1,1-1.27H24.36a1,1,0,0,1,1,1.27l-2.56,9.28a1,1,0,0,1-1,.73Zm-12.68-2H21l2-7.28H7.12l2,7.28Z"/><path class="cls-1" d="M8.36,15.05a1,1,0,0,1-1-.74L4.06,2.14,1,2A1,1,0,0,1,0,1,1,1,0,0,1,1,0L4.88.17A1,1,0,0,1,5.8.9L9.33,13.79A1,1,0,0,1,8.63,15a1,1,0,0,1-.27,0Z"/><path class="cls-1" d="M10.75,21a2.75,2.75,0,1,1,2.75-2.75A2.75,2.75,0,0,1,10.75,21Zm0-3.5a.75.75,0,1,0,.75.75.75.75,0,0,0-.75-.75Z"/><path class="cls-1" d="M19.08,21a2.75,2.75,0,1,1,2.75-2.75A2.75,2.75,0,0,1,19.08,21Zm0-3.5a.75.75,0,1,0,.75.75.75.75,0,0,0-.75-.75Z"/></g></g></svg>